<?xml version="1.0" standalone="no"?>
<!DOCTYPE svg PUBLIC "-//W3C//DTD SVG 20010904//EN"
 "http://www.w3.org/TR/2001/REC-SVG-20010904/DTD/svg10.dtd">
<svg version="1.0" xmlns="http://www.w3.org/2000/svg"
 width="512.000000pt" height="512.000000pt" viewBox="0 0 512.000000 512.000000"
 preserveAspectRatio="xMidYMid meet">
<metadata>
Created by potrace 1.14, written by Peter Selinger 2001-2017
</metadata>
<g transform="translate(0.000000,512.000000) scale(0.100000,-0.100000)"
fill="#000000" stroke="none">
<path d="M2447 5105 c-39 -39 -50 -71 -67 -198 -27 -192 -8 -365 55 -500 13
-29 36 -81 50 -117 34 -82 79 -165 151 -276 l57 -88 -452 -448 c-249 -246
-456 -448 -461 -448 -6 0 -10 8 -10 19 0 28 57 308 75 371 13 42 104 327 130
407 7 21 -11 23 -31 4 -130 -124 -386 -540 -459 -744 -38 -106 -80 -265 -91
-342 -13 -95 -8 -305 11 -410 36 -201 81 -326 203 -565 77 -151 166 -293 295
-470 42 -58 84 -116 94 -130 10 -14 81 -110 159 -215 195 -262 360 -531 413
-671 22 -60 46 -143 52 -185 6 -42 15 -82 20 -90 15 -23 46 27 69 114 27 101
34 153 33 257 -1 101 -49 311 -94 405 -47 100 -156 297 -199 359 l-26 39 443
441 c245 243 449 443 455 445 6 2 7 -16 3 -50 -17 -147 -72 -364 -140 -552
-30 -82 -56 -155 -57 -164 -5 -27 20 -26 44 3 13 15 28 32 34 38 45 47 274
378 274 396 0 5 4 10 8 10 32 0 188 425 216 591 23 131 26 290 9 394 -7 44
-16 96 -19 115 -13 80 -27 130 -66 230 -78 201 -131 308 -238 481 -49 79 -187
278 -200 289 -3 3 -17 21 -30 40 -14 19 -30 42 -37 50 -23 29 -129 176 -173
240 -25 36 -47 67 -50 70 -28 26 -238 340 -282 420 -55 102 -126 289 -132 350
-3 31 -9 66 -14 79 -8 22 -9 22 -25 6z m420 -1442 c23 -33 29 -51 23 -62 -20
-36 -1084 -1091 -1100 -1091 -6 0 -10 3 -10 8 0 4 -3 40 -7 80 l-6 72 194 197
c107 108 272 273 368 367 95 94 243 240 328 324 85 83 159 152 166 152 7 0 26
-22 44 -47z m198 -320 c14 -21 25 -49 25 -63 0 -19 -124 -148 -585 -607 -321
-321 -588 -583 -593 -583 -11 0 -52 95 -52 121 0 10 239 255 566 581 312 310
572 568 578 575 19 21 34 14 61 -24z m165 -378 c13 -31 20 -65 17 -77 -6 -23
-117 -136 -785 -798 l-374 -370 -17 22 c-23 30 -51 84 -51 99 0 13 1167 1179
1180 1179 4 0 18 -25 30 -55z m105 -420 c7 -51 9 -65 7 -93 -1 -15 -105 -124
-324 -340 -176 -174 -407 -404 -513 -509 -118 -119 -199 -193 -211 -193 -19 0
-74 76 -74 103 0 7 246 256 547 555 376 374 549 539 554 530 4 -7 10 -31 14
-53z"/>
<path d="M2559 5015 c-10 -39 14 -112 83 -250 72 -144 218 -384 283 -464 22
-27 154 -206 265 -361 110 -153 225 -328 330 -500 35 -58 65 -107 67 -109 1
-2 10 2 19 10 15 12 15 17 -1 90 -46 210 -114 392 -207 552 -22 37 -38 72 -36
77 8 23 326 -209 421 -307 162 -169 279 -352 366 -576 46 -120 99 -315 106
-398 5 -62 6 -391 1 -429 -2 -14 -7 -48 -10 -75 -20 -143 -65 -272 -180 -506
-86 -175 -143 -255 -271 -385 -259 -263 -492 -392 -884 -490 -62 -16 -116 -35
-118 -42 -6 -15 32 -160 56 -212 22 -47 50 -49 201 -10 346 87 658 267 920
530 132 132 149 151 231 263 68 93 179 306 232 447 39 102 92 304 102 385 3
28 9 81 14 119 4 38 7 135 5 215 -4 218 -18 334 -51 421 -3 8 -7 20 -9 25 -58
231 -136 426 -229 570 -18 29 -99 135 -135 179 -134 160 -223 254 -308 324
-59 49 -262 181 -335 219 -87 44 -332 140 -403 158 -38 9 -80 23 -94 30 -42
22 -231 245 -322 378 -70 103 -104 142 -109 122z"/>
<path d="M2120 4509 c-109 -25 -253 -72 -338 -111 -212 -96 -255 -121 -390
-221 -163 -123 -185 -141 -262 -218 -179 -180 -315 -381 -413 -610 -40 -93
-56 -140 -103 -285 -39 -123 -49 -224 -48 -514 l0 -285 32 -125 c18 -69 34
-132 37 -140 31 -121 126 -337 195 -445 137 -212 170 -256 300 -385 276 -275
569 -444 942 -545 58 -15 65 -21 148 -111 114 -124 240 -286 240 -309 0 -10
44 -68 65 -86 13 -11 22 -14 27 -6 12 19 13 16 -112 283 -72 154 -110 214
-334 529 -113 160 -210 297 -216 305 -6 8 -38 53 -71 100 -70 98 -249 366
-249 373 0 2 -12 26 -26 52 -24 41 -28 45 -42 32 -16 -16 -14 -31 29 -202 41
-162 139 -400 199 -485 12 -17 16 -30 10 -30 -36 0 -274 175 -393 289 -77 73
-199 218 -230 273 -126 224 -167 311 -193 408 -72 271 -67 236 -70 505 -3 217
-1 262 16 341 24 116 84 302 120 376 182 369 387 592 709 772 249 140 314 164
574 216 69 14 68 3 12 155 -31 88 -55 127 -74 124 -3 0 -44 -9 -91 -20z"/>
</g>
</svg>
