<svg width="40" height="40" viewBox="0 0 40 40" fill="none" xmlns="http://www.w3.org/2000/svg">
<path d="M20 40C31.0457 40 40 31.0457 40 20C40 8.9543 31.0457 0 20 0C8.9543 0 0 8.9543 0 20C0 31.0457 8.9543 40 20 40Z" fill="#F7931A"/>
<path d="M28.9859 17.525C29.3784 14.905 27.3822 13.4963 24.6547 12.5563L25.5397 9.00625L23.3797 8.46875L22.5172 11.925C21.9497 11.7825 21.3672 11.65 20.7859 11.5175L21.6547 8.03875L19.4947 7.5L18.6097 11.0487C18.1397 10.9413 17.6772 10.8363 17.2297 10.7238L17.2322 10.7125L14.2522 9.96875L13.6772 12.2763C13.6772 12.2763 15.2809 12.6438 15.2472 12.6663C16.1222 12.885 16.2797 13.4638 16.2534 13.9238L15.2459 17.9675C15.3059 17.9825 15.3834 18.005 15.4709 18.0388L15.2422 17.9825L13.8297 23.6475C13.7222 23.9125 13.4509 24.3113 12.8384 24.16C12.8609 24.1912 11.2684 23.7688 11.2684 23.7688L10.1959 26.2413L13.0084 26.9425C13.5309 27.0738 14.0434 27.2113 14.5472 27.34L13.6534 30.93L15.8122 31.4675L16.6972 27.9175C17.2872 28.0763 17.8597 28.2238 18.4197 28.3638L17.5372 31.8988L19.6972 32.4363L20.5909 28.8538C24.2759 29.5513 27.0459 29.27 28.2122 25.9375C29.1522 23.255 28.1659 21.7063 26.2272 20.6975C27.6397 20.3725 28.7022 19.4438 28.9859 17.525ZM24.0484 24.4475C23.3822 27.1313 18.8634 25.68 17.3984 25.3163L18.5859 20.56C20.0509 20.9263 24.7472 21.65 24.0484 24.4475ZM24.7172 17.4863C24.1084 19.9275 20.3484 18.6863 19.1297 18.3825L20.2047 14.07C21.4234 14.3738 25.3522 14.94 24.7172 17.4863Z" fill="white"/>
</svg>
