<svg width="235" height="31" viewBox="0 0 235 31" fill="none" xmlns="http://www.w3.org/2000/svg">
<path d="M14.0005 1.5V9.13341C17.5087 9.13341 20.3671 11.9919 20.3671 15.5H28.0006C27.9681 7.76914 21.6989 1.5 14.0005 1.5Z" fill="url(#paint0_linear_612_355)"/>
<path d="M14 9.13341C16.1114 9.13341 17.8005 7.41183 17.8005 5.33295C17.8005 3.22158 16.1114 1.5 14 1.5C6.26914 1.5 0 7.76914 0 15.5H7.63341C7.63341 11.9919 10.4919 9.13341 14 9.13341Z" fill="url(#paint1_linear_612_355)"/>
<path d="M7.63341 15.5H0C0 23.2309 6.26914 29.5 14 29.5V21.8341C10.4919 21.8341 7.63341 19.0081 7.63341 15.5Z" fill="url(#paint2_linear_612_355)"/>
<path d="M14.0005 29.4675V21.8341C10.4924 21.8341 7.63389 18.9757 7.63389 15.4675H0.032959C0.032959 23.1984 6.3021 29.4675 14.0005 29.4675Z" fill="url(#paint3_linear_612_355)"/>
<path d="M14.0005 9.13341C16.1119 9.13341 17.801 7.41183 17.801 5.33295C17.801 3.25406 16.1119 1.5 14.0005 1.5C6.3021 1.5 0.032959 7.76914 0.032959 15.5H7.66637C7.66637 11.9919 10.4924 9.13341 14.0005 9.13341Z" fill="url(#paint4_linear_612_355)"/>
<path d="M13.9995 21.8341C11.8881 21.8341 10.199 23.5557 10.199 25.6345C10.199 27.7134 11.9206 29.435 13.9995 29.435C21.7303 29.435 27.9995 23.1659 27.9995 15.435H20.3336C20.3336 19.0081 17.5076 21.8341 13.9995 21.8341Z" fill="url(#paint5_linear_612_355)"/>
<path d="M40.9033 25H36.6192L43.1469 6.09091H48.2989L54.8174 25H50.5333L45.7968 10.4119H45.649L40.9033 25ZM40.6356 17.5675H50.7549V20.6882H40.6356V17.5675ZM57.0194 25V10.8182H60.8326V13.2926H60.9804C61.2389 12.4124 61.6728 11.7476 62.2822 11.2983C62.8916 10.8428 63.5933 10.6151 64.3873 10.6151C64.5843 10.6151 64.7967 10.6274 65.0244 10.652C65.2521 10.6766 65.4522 10.7105 65.6245 10.7536V14.2436C65.4399 14.1882 65.1844 14.139 64.8582 14.0959C64.532 14.0528 64.2334 14.0312 63.9626 14.0312C63.384 14.0312 62.867 14.1574 62.4115 14.4098C61.9621 14.656 61.6051 15.0007 61.3405 15.4439C61.0819 15.8871 60.9527 16.398 60.9527 16.9766V25H57.0194ZM73.4056 25.277C71.953 25.277 70.7034 24.9692 69.657 24.3537C68.6168 23.732 67.8166 22.8703 67.2565 21.7685C66.7025 20.6667 66.4255 19.3987 66.4255 17.9645C66.4255 16.5118 66.7056 15.2377 67.2657 14.142C67.832 13.0402 68.6353 12.1816 69.6755 11.5661C70.7158 10.9444 71.953 10.6335 73.3872 10.6335C74.6244 10.6335 75.7077 10.8582 76.6372 11.3075C77.5666 11.7569 78.3022 12.3878 78.8438 13.2003C79.3855 14.0128 79.684 14.9669 79.7394 16.0625H76.0278C75.9231 15.3546 75.6461 14.7853 75.1968 14.3544C74.7536 13.9174 74.172 13.6989 73.4518 13.6989C72.8424 13.6989 72.31 13.8651 71.8545 14.1974C71.4051 14.5237 71.0543 15.0007 70.8019 15.6286C70.5496 16.2564 70.4234 17.0166 70.4234 17.9091C70.4234 18.8139 70.5465 19.5833 70.7927 20.2173C71.0451 20.8513 71.399 21.3345 71.8545 21.6669C72.31 21.9993 72.8424 22.1655 73.4518 22.1655C73.9011 22.1655 74.3043 22.0732 74.6613 21.8885C75.0245 21.7038 75.323 21.4361 75.5569 21.0852C75.797 20.7282 75.9539 20.3004 76.0278 19.8018H79.7394C79.6779 20.8852 79.3824 21.8393 78.8531 22.6641C78.3299 23.4827 77.6066 24.1229 76.6833 24.5845C75.76 25.0462 74.6675 25.277 73.4056 25.277ZM86.3017 25.2678C85.3969 25.2678 84.5906 25.1108 83.8827 24.7969C83.1749 24.4768 82.6147 24.0059 82.2023 23.3842C81.7961 22.7564 81.5929 21.9747 81.5929 21.0391C81.5929 20.2512 81.7376 19.5895 82.0269 19.054C82.3162 18.5185 82.7101 18.0876 83.2087 17.7614C83.7073 17.4351 84.2736 17.1889 84.9076 17.0227C85.5477 16.8565 86.2187 16.7396 86.9204 16.6719C87.7452 16.5857 88.4099 16.5057 88.9147 16.4318C89.4194 16.3518 89.7856 16.2348 90.0134 16.081C90.2411 15.9271 90.355 15.6993 90.355 15.3977V15.3423C90.355 14.7576 90.1704 14.3052 89.801 13.9851C89.4379 13.665 88.9208 13.505 88.2499 13.505C87.542 13.505 86.9788 13.6619 86.5603 13.9759C86.1417 14.2836 85.8647 14.6714 85.7293 15.1392L82.0915 14.8438C82.2762 13.982 82.6393 13.2372 83.181 12.6094C83.7227 11.9754 84.4213 11.4891 85.2769 11.1506C86.1386 10.8059 87.1358 10.6335 88.2684 10.6335C89.0562 10.6335 89.8103 10.7259 90.5304 10.9105C91.2568 11.0952 91.9 11.3814 92.4601 11.7692C93.0264 12.157 93.4727 12.6555 93.7989 13.2649C94.1251 13.8681 94.2883 14.5914 94.2883 15.4347V25H90.5581V23.0334H90.4473C90.2196 23.4766 89.9149 23.8674 89.5333 24.206C89.1517 24.5384 88.6931 24.8 88.1576 24.9908C87.6221 25.1754 87.0035 25.2678 86.3017 25.2678ZM87.4282 22.5533C88.0068 22.5533 88.5177 22.4394 88.9608 22.2116C89.404 21.9777 89.7518 21.6638 90.0042 21.2699C90.2565 20.8759 90.3827 20.4297 90.3827 19.9311V18.4261C90.2596 18.5062 90.0903 18.58 89.8749 18.6477C89.6656 18.7093 89.4286 18.7678 89.164 18.8232C88.8993 18.8724 88.6346 18.9186 88.3699 18.9616C88.1053 18.9986 87.8652 19.0324 87.6498 19.0632C87.1881 19.1309 86.7849 19.2386 86.4402 19.3864C86.0955 19.5341 85.8278 19.7341 85.637 19.9865C85.4462 20.2327 85.3508 20.5405 85.3508 20.9098C85.3508 21.4453 85.5446 21.8546 85.9324 22.1378C86.3264 22.4148 86.8249 22.5533 87.4282 22.5533ZM101.273 16.8011V25H97.3397V10.8182H101.088V13.3203H101.255C101.568 12.4955 102.095 11.843 102.833 11.3629C103.572 10.8767 104.468 10.6335 105.52 10.6335C106.505 10.6335 107.364 10.849 108.096 11.2798C108.829 11.7107 109.398 12.3262 109.804 13.1264C110.21 13.9205 110.414 14.8684 110.414 15.9702V25H106.48V16.6719C106.487 15.804 106.265 15.1269 105.816 14.6406C105.366 14.1482 104.748 13.902 103.96 13.902C103.43 13.902 102.963 14.0159 102.556 14.2436C102.156 14.4714 101.842 14.8037 101.615 15.2408C101.393 15.6716 101.279 16.1918 101.273 16.8011ZM119.977 25.277C118.518 25.277 117.262 24.9815 116.21 24.3906C115.163 23.7936 114.357 22.9503 113.791 21.8608C113.224 20.7652 112.941 19.4695 112.941 17.9737C112.941 16.5149 113.224 15.2346 113.791 14.1328C114.357 13.031 115.154 12.1723 116.182 11.5568C117.216 10.9413 118.429 10.6335 119.82 10.6335C120.755 10.6335 121.626 10.7843 122.433 11.0859C123.245 11.3814 123.953 11.8277 124.556 12.4247C125.166 13.0218 125.64 13.7727 125.978 14.6776C126.317 15.5762 126.486 16.6288 126.486 17.8352V18.9155H114.511V16.478H122.783C122.783 15.9117 122.66 15.41 122.414 14.973C122.168 14.536 121.826 14.1944 121.389 13.9482C120.958 13.6958 120.457 13.5696 119.884 13.5696C119.287 13.5696 118.758 13.7081 118.296 13.9851C117.841 14.2559 117.484 14.6222 117.225 15.0838C116.967 15.5393 116.834 16.0471 116.828 16.6072V18.9247C116.828 19.6264 116.957 20.2327 117.216 20.7436C117.481 21.2545 117.853 21.6484 118.333 21.9254C118.813 22.2024 119.383 22.3409 120.041 22.3409C120.478 22.3409 120.878 22.2794 121.242 22.1562C121.605 22.0331 121.916 21.8485 122.174 21.6023C122.433 21.3561 122.63 21.0545 122.765 20.6974L126.403 20.9375C126.218 21.8116 125.84 22.5748 125.267 23.2273C124.701 23.8736 123.968 24.3783 123.07 24.7415C122.177 25.0985 121.146 25.277 119.977 25.277ZM135.144 25V6.09091H147.664V9.38707H139.142V13.8928H146.833V17.1889H139.142V25H135.144ZM150.279 25V10.8182H154.212V25H150.279ZM152.255 8.99006C151.67 8.99006 151.169 8.79616 150.75 8.40838C150.338 8.01444 150.131 7.54356 150.131 6.99574C150.131 6.45407 150.338 5.98935 150.75 5.60156C151.169 5.20762 151.67 5.01065 152.255 5.01065C152.84 5.01065 153.338 5.20762 153.751 5.60156C154.169 5.98935 154.379 6.45407 154.379 6.99574C154.379 7.54356 154.169 8.01444 153.751 8.40838C153.338 8.79616 152.84 8.99006 152.255 8.99006ZM161.296 16.8011V25H157.363V10.8182H161.112V13.3203H161.278C161.592 12.4955 162.118 11.843 162.857 11.3629C163.595 10.8767 164.491 10.6335 165.544 10.6335C166.528 10.6335 167.387 10.849 168.12 11.2798C168.852 11.7107 169.421 12.3262 169.828 13.1264C170.234 13.9205 170.437 14.8684 170.437 15.9702V25H166.504V16.6719C166.51 15.804 166.288 15.1269 165.839 14.6406C165.39 14.1482 164.771 13.902 163.983 13.902C163.454 13.902 162.986 14.0159 162.58 14.2436C162.18 14.4714 161.866 14.8037 161.638 15.2408C161.416 15.6716 161.303 16.1918 161.296 16.8011ZM177.581 25.2678C176.676 25.2678 175.87 25.1108 175.162 24.7969C174.454 24.4768 173.894 24.0059 173.482 23.3842C173.075 22.7564 172.872 21.9747 172.872 21.0391C172.872 20.2512 173.017 19.5895 173.306 19.054C173.595 18.5185 173.989 18.0876 174.488 17.7614C174.987 17.4351 175.553 17.1889 176.187 17.0227C176.827 16.8565 177.498 16.7396 178.2 16.6719C179.024 16.5857 179.689 16.5057 180.194 16.4318C180.699 16.3518 181.065 16.2348 181.293 16.081C181.52 15.9271 181.634 15.6993 181.634 15.3977V15.3423C181.634 14.7576 181.45 14.3052 181.08 13.9851C180.717 13.665 180.2 13.505 179.529 13.505C178.821 13.505 178.258 13.6619 177.84 13.9759C177.421 14.2836 177.144 14.6714 177.009 15.1392L173.371 14.8438C173.555 13.982 173.919 13.2372 174.46 12.6094C175.002 11.9754 175.701 11.4891 176.556 11.1506C177.418 10.8059 178.415 10.6335 179.548 10.6335C180.336 10.6335 181.09 10.7259 181.81 10.9105C182.536 11.0952 183.179 11.3814 183.739 11.7692C184.306 12.157 184.752 12.6555 185.078 13.2649C185.404 13.8681 185.568 14.5914 185.568 15.4347V25H181.837V23.0334H181.727C181.499 23.4766 181.194 23.8674 180.813 24.206C180.431 24.5384 179.972 24.8 179.437 24.9908C178.901 25.1754 178.283 25.2678 177.581 25.2678ZM178.707 22.5533C179.286 22.5533 179.797 22.4394 180.24 22.2116C180.683 21.9777 181.031 21.6638 181.283 21.2699C181.536 20.8759 181.662 20.4297 181.662 19.9311V18.4261C181.539 18.5062 181.37 18.58 181.154 18.6477C180.945 18.7093 180.708 18.7678 180.443 18.8232C180.179 18.8724 179.914 18.9186 179.649 18.9616C179.385 18.9986 179.144 19.0324 178.929 19.0632C178.467 19.1309 178.064 19.2386 177.72 19.3864C177.375 19.5341 177.107 19.7341 176.916 19.9865C176.725 20.2327 176.63 20.5405 176.63 20.9098C176.63 21.4453 176.824 21.8546 177.212 22.1378C177.606 22.4148 178.104 22.5533 178.707 22.5533ZM192.552 16.8011V25H188.619V10.8182H192.368V13.3203H192.534C192.848 12.4955 193.374 11.843 194.113 11.3629C194.851 10.8767 195.747 10.6335 196.799 10.6335C197.784 10.6335 198.643 10.849 199.375 11.2798C200.108 11.7107 200.677 12.3262 201.084 13.1264C201.49 13.9205 201.693 14.8684 201.693 15.9702V25H197.76V16.6719C197.766 15.804 197.544 15.1269 197.095 14.6406C196.646 14.1482 196.027 13.902 195.239 13.902C194.71 13.902 194.242 14.0159 193.836 14.2436C193.436 14.4714 193.122 14.8037 192.894 15.2408C192.672 15.6716 192.558 16.1918 192.552 16.8011ZM211.201 25.277C209.748 25.277 208.498 24.9692 207.452 24.3537C206.412 23.732 205.612 22.8703 205.051 21.7685C204.497 20.6667 204.22 19.3987 204.22 17.9645C204.22 16.5118 204.5 15.2377 205.061 14.142C205.627 13.0402 206.43 12.1816 207.47 11.5661C208.511 10.9444 209.748 10.6335 211.182 10.6335C212.419 10.6335 213.503 10.8582 214.432 11.3075C215.362 11.7569 216.097 12.3878 216.639 13.2003C217.18 14.0128 217.479 14.9669 217.534 16.0625H213.823C213.718 15.3546 213.441 14.7853 212.992 14.3544C212.549 13.9174 211.967 13.6989 211.247 13.6989C210.637 13.6989 210.105 13.8651 209.649 14.1974C209.2 14.5237 208.849 15.0007 208.597 15.6286C208.344 16.2564 208.218 17.0166 208.218 17.9091C208.218 18.8139 208.341 19.5833 208.588 20.2173C208.84 20.8513 209.194 21.3345 209.649 21.6669C210.105 21.9993 210.637 22.1655 211.247 22.1655C211.696 22.1655 212.099 22.0732 212.456 21.8885C212.819 21.7038 213.118 21.4361 213.352 21.0852C213.592 20.7282 213.749 20.3004 213.823 19.8018H217.534C217.473 20.8852 217.177 21.8393 216.648 22.6641C216.125 23.4827 215.402 24.1229 214.478 24.5845C213.555 25.0462 212.462 25.277 211.201 25.277ZM226.516 25.277C225.057 25.277 223.801 24.9815 222.749 24.3906C221.702 23.7936 220.896 22.9503 220.33 21.8608C219.763 20.7652 219.48 19.4695 219.48 17.9737C219.48 16.5149 219.763 15.2346 220.33 14.1328C220.896 13.031 221.693 12.1723 222.721 11.5568C223.755 10.9413 224.968 10.6335 226.359 10.6335C227.294 10.6335 228.165 10.7843 228.972 11.0859C229.784 11.3814 230.492 11.8277 231.095 12.4247C231.705 13.0218 232.179 13.7727 232.517 14.6776C232.856 15.5762 233.025 16.6288 233.025 17.8352V18.9155H221.05V16.478H229.323C229.323 15.9117 229.199 15.41 228.953 14.973C228.707 14.536 228.365 14.1944 227.928 13.9482C227.497 13.6958 226.996 13.5696 226.423 13.5696C225.826 13.5696 225.297 13.7081 224.835 13.9851C224.38 14.2559 224.023 14.6222 223.764 15.0838C223.506 15.5393 223.373 16.0471 223.367 16.6072V18.9247C223.367 19.6264 223.497 20.2327 223.755 20.7436C224.02 21.2545 224.392 21.6484 224.872 21.9254C225.352 22.2024 225.922 22.3409 226.58 22.3409C227.017 22.3409 227.417 22.2794 227.781 22.1562C228.144 22.0331 228.455 21.8485 228.713 21.6023C228.972 21.3561 229.169 21.0545 229.304 20.6974L232.942 20.9375C232.757 21.8116 232.379 22.5748 231.806 23.2273C231.24 23.8736 230.507 24.3783 229.609 24.7415C228.716 25.0985 227.685 25.277 226.516 25.277Z" fill="white"/>
<defs>
<linearGradient id="paint0_linear_612_355" x1="22.0166" y1="3.41696" x2="15.4895" y2="35.4901" gradientUnits="userSpaceOnUse">
<stop offset="0.00263614" stop-color="#134FFE"/>
<stop offset="0.0863699" stop-color="#1062FD"/>
<stop offset="0.26" stop-color="#0B84FC"/>
<stop offset="0.4374" stop-color="#079FFA"/>
<stop offset="0.6177" stop-color="#04B2FA"/>
<stop offset="0.8028" stop-color="#03BDF9"/>
<stop offset="1" stop-color="#02C1F9"/>
</linearGradient>
<linearGradient id="paint1_linear_612_355" x1="8.7207" y1="1.02004" x2="9.28967" y2="30.4364" gradientUnits="userSpaceOnUse">
<stop stop-color="#06B1FA"/>
<stop offset="1" stop-color="#1058FE"/>
</linearGradient>
<linearGradient id="paint2_linear_612_355" x1="7.31774" y1="1.78055" x2="6.89213" y2="29.0187" gradientUnits="userSpaceOnUse">
<stop stop-color="#06B1FA"/>
<stop offset="1" stop-color="#1058FE"/>
</linearGradient>
<linearGradient id="paint3_linear_612_355" x1="5.98504" y1="27.5601" x2="12.5123" y2="-4.51301" gradientUnits="userSpaceOnUse">
<stop offset="0.00263614" stop-color="#134FFE"/>
<stop offset="0.0863699" stop-color="#1062FD"/>
<stop offset="0.26" stop-color="#0B84FC"/>
<stop offset="0.4374" stop-color="#079FFA"/>
<stop offset="0.6177" stop-color="#04B2FA"/>
<stop offset="0.8028" stop-color="#03BDF9"/>
<stop offset="1" stop-color="#02C1F9"/>
</linearGradient>
<linearGradient id="paint4_linear_612_355" x1="5.35481" y1="27.4318" x2="17.2158" y2="-0.124132" gradientUnits="userSpaceOnUse">
<stop offset="0.00263614" stop-color="#134FFE"/>
<stop offset="0.0863699" stop-color="#1062FD"/>
<stop offset="0.26" stop-color="#0B84FC"/>
<stop offset="0.4374" stop-color="#079FFA"/>
<stop offset="0.6177" stop-color="#04B2FA"/>
<stop offset="0.8028" stop-color="#03BDF9"/>
<stop offset="1" stop-color="#02F9F9"/>
</linearGradient>
<linearGradient id="paint5_linear_612_355" x1="22.6458" y1="3.54519" x2="11.0441" y2="31.384" gradientUnits="userSpaceOnUse">
<stop offset="0.00263614" stop-color="#134FFE"/>
<stop offset="0.0863699" stop-color="#1062FD"/>
<stop offset="0.26" stop-color="#0B84FC"/>
<stop offset="0.4374" stop-color="#079FFA"/>
<stop offset="0.6177" stop-color="#04B2FA"/>
<stop offset="0.8028" stop-color="#03BDF9"/>
<stop offset="1" stop-color="#02F9F9"/>
</linearGradient>
</defs>
</svg>
